<svg xmlns="http://www.w3.org/2000/svg" version="1.1" xmlns:xlink="http://www.w3.org/1999/xlink" xmlns:svgjs="http://svgjs.dev/svgjs" width="1440" height="560" preserveAspectRatio="none" viewBox="0 0 1440 560"><g mask="url(&quot;#SvgjsMask1046&quot;)" fill="none"><rect width="1440" height="560" x="0" y="0" fill="rgba(44, 176, 235, 1)"></rect><path d="M0,325.166C66.45,324.154,132.297,326.623,193.928,301.758C264.879,273.133,339.85,238.939,378.045,172.647C417.357,104.418,426.912,16.706,401.013,-57.657C376.423,-128.26,304.955,-168.022,244.215,-211.613C195.412,-246.637,141.555,-268.881,83.78,-285.328C26.458,-301.646,-31.558,-318.069,-90.077,-306.775C-152.029,-294.819,-216.642,-270.944,-254.043,-220.129C-290.713,-170.307,-283.579,-102.897,-285.641,-41.069C-287.495,14.54,-279.02,67.262,-265.426,121.216C-248.934,186.672,-251.289,266.597,-197.763,307.725C-144.203,348.88,-67.537,326.195,0,325.166" fill="#1077a6"></path><path d="M1440 1031.27C1553.161 1028.292 1668.458 1123.513 1770.027 1073.533 1871.261 1023.717 1910.633 896.614 1936.718 786.844 1959.964 689.021 1920.566 592.47 1908.054 492.704 1895.262 390.699 1917.007 281.097 1862.372 194.01299999999998 1804.3980000000001 101.608 1706.277 40.125 1602.679 5.965000000000032 1497.026-28.873000000000047 1380.079-38.011999999999944 1275.739 0.5789999999999509 1174.424 38.051000000000045 1116.3029999999999 136.865 1040.549 213.873 958.962 296.811 844.469 357.719 813.971 469.991 782.497 585.856 826.622 708.129 876.636 817.28 926.604 926.331 986.48 1048.607 1098.617 1091.202 1208.855 1133.075 1322.118 1034.372 1440 1031.27" fill="#85d1f4"></path></g><defs><mask id="SvgjsMask1046"><rect width="1440" height="560" fill="#ffffff"></rect></mask></defs></svg>