<svg id="Layer_1" data-name="Layer 1" xmlns="http://www.w3.org/2000/svg" xmlns:xlink="http://www.w3.org/1999/xlink" viewBox="0 0 327.96 94.89"><defs><style>.cls-1,.cls-10,.cls-11,.cls-12,.cls-13,.cls-14,.cls-15,.cls-2,.cls-3,.cls-4,.cls-5,.cls-6,.cls-7,.cls-8,.cls-9{stroke-miterlimit:10;}.cls-1{fill:url(#Blue);stroke:url(#Blue-2);}.cls-2{fill:url(#Blue-3);stroke:url(#Blue-4);}.cls-3{fill:url(#Blue-5);stroke:url(#Blue-6);}.cls-4{fill:url(#Blue-7);stroke:url(#Blue-8);}.cls-5{fill:url(#Blue-9);stroke:url(#Blue-10);}.cls-6{fill:url(#Blue-11);stroke:url(#Blue-12);}.cls-7{fill:url(#Blue-13);stroke:url(#Blue-14);}.cls-8{fill:url(#Blue-15);stroke:url(#Blue-16);}.cls-9{fill:url(#Blue-17);stroke:url(#Blue-18);}.cls-10{fill:url(#Blue-19);stroke:url(#Blue-20);}.cls-11{fill:url(#Blue-21);stroke:url(#Blue-22);}.cls-12{fill:url(#Blue-23);stroke:url(#Blue-24);}.cls-13,.cls-14{fill:#2b3990;}.cls-13{stroke:url(#Blue-25);}.cls-14{stroke:url(#Blue-26);}.cls-15{fill:url(#Blue-27);stroke:url(#Blue-28);}.cls-16{fill:#fff;}</style><linearGradient id="Blue" x1="340.92" y1="176.82" x2="371.13" y2="176.82" gradientUnits="userSpaceOnUse"><stop offset="0" stop-color="#2bc4f3"/><stop offset="0.5" stop-color="#00aeee"/><stop offset="1" stop-color="#0095da"/></linearGradient><linearGradient id="Blue-2" x1="340.42" y1="176.82" x2="371.63" y2="176.82" xlink:href="#Blue"/><linearGradient id="Blue-3" x1="396.39" y1="176.95" x2="416.79" y2="176.95" xlink:href="#Blue"/><linearGradient id="Blue-4" x1="395.89" y1="176.95" x2="417.29" y2="176.95" xlink:href="#Blue"/><linearGradient id="Blue-5" x1="317.87" y1="177.03" x2="338.26" y2="177.03" xlink:href="#Blue"/><linearGradient id="Blue-6" x1="317.37" y1="177.03" x2="338.76" y2="177.03" xlink:href="#Blue"/><linearGradient id="Blue-7" x1="373.83" y1="176.88" x2="394.27" y2="176.88" xlink:href="#Blue"/><linearGradient id="Blue-8" x1="373.33" y1="176.88" x2="394.77" y2="176.88" xlink:href="#Blue"/><linearGradient id="Blue-9" x1="259.06" y1="176.72" x2="280.47" y2="176.72" xlink:href="#Blue"/><linearGradient id="Blue-10" x1="258.56" y1="176.72" x2="280.97" y2="176.72" xlink:href="#Blue"/><linearGradient id="Blue-11" x1="418.17" y1="172.4" x2="434.39" y2="172.4" xlink:href="#Blue"/><linearGradient id="Blue-12" x1="417.67" y1="172.4" x2="434.89" y2="172.4" xlink:href="#Blue"/><linearGradient id="Blue-13" x1="239.84" y1="176.77" x2="256.86" y2="176.77" xlink:href="#Blue"/><linearGradient id="Blue-14" x1="239.34" y1="176.77" x2="257.36" y2="176.77" xlink:href="#Blue"/><linearGradient id="Blue-15" x1="293.6" y1="176.68" x2="317.2" y2="176.68" xlink:href="#Blue"/><linearGradient id="Blue-16" x1="293.1" y1="176.68" x2="317.7" y2="176.68" xlink:href="#Blue"/><linearGradient id="Blue-17" x1="283.19" y1="170.81" x2="293.8" y2="170.81" xlink:href="#Blue"/><linearGradient id="Blue-18" x1="282.69" y1="170.81" x2="294.3" y2="170.81" xlink:href="#Blue"/><linearGradient id="Blue-19" x1="107.43" y1="171.21" x2="213.87" y2="171.21" xlink:href="#Blue"/><linearGradient id="Blue-20" x1="106.93" y1="171.21" x2="214.37" y2="171.21" xlink:href="#Blue"/><linearGradient id="Blue-21" x1="193.87" y1="185.2" x2="237.68" y2="185.2" xlink:href="#Blue"/><linearGradient id="Blue-22" x1="192.59" y1="184.96" x2="238.18" y2="184.96" xlink:href="#Blue"/><linearGradient id="Blue-23" x1="145.21" y1="164.33" x2="165.51" y2="164.33" xlink:href="#Blue"/><linearGradient id="Blue-24" x1="144.71" y1="164.26" x2="166.13" y2="164.26" xlink:href="#Blue"/><linearGradient id="Blue-25" x1="160.15" y1="160.71" x2="191.8" y2="160.71" xlink:href="#Blue"/><linearGradient id="Blue-26" x1="145.52" y1="183.24" x2="175.97" y2="183.24" xlink:href="#Blue"/><linearGradient id="Blue-27" x1="169.57" y1="179.44" x2="191.87" y2="179.44" xlink:href="#Blue"/><linearGradient id="Blue-28" x1="168.98" y1="179.46" x2="192.37" y2="179.46" xlink:href="#Blue"/></defs><path class="cls-1" d="M347.74,166.81c3.9-4.24,6.64-3.94,10.07.72,1.69-1.18,3.23-2.82,5-3.38,3.6-1.14,7.24,1.95,7.78,6.9a141.34,141.34,0,0,1,.56,15.56c0,2.67-1.8,3.15-3.56,3.08s-3.09-.72-3.09-3.36q0-4.2-.09-8.38a7.44,7.44,0,0,0-.28-3c-.6-1.05-1.61-2.31-2.48-2.35-.65,0-1.85,1.64-1.94,2.67-.29,3.23-.17,6.51-.19,9.77,0,3.84-1.85,5.63-4.77,4.37a3.74,3.74,0,0,1-1.83-2.58c-.3-3.41-.27-6.86-.34-10.3,0-2.13-.35-4.14-2.46-4.06s-2.19,2.11-2.22,4.08c-.05,3.25,0,6.52-.19,9.75-.18,2.72-1.3,3.57-3.72,3.39-2.22-.17-3-1.18-3-4,0-5.77,0-11.54,0-17.32,0-1.94.11-3.81,2.05-4.28C345.56,163.43,346.73,164.09,347.74,166.81Z" transform="translate(-106.93 -125.47)"/><path class="cls-2" d="M403.66,180.77c1.24.71,2.44,1.8,3.74,2a9.29,9.29,0,0,0,4.13-.7c2.26-.72,3.17-.25,4,2.42.66,2.26.08,3.65-2,4.71-6.34,3.26-13.68.26-16.15-6.62-1.89-5.24-1-11.76,2.15-15.48s8.86-4.91,12.7-2.49c3,1.88,4.49,5.06,4.57,9.21.07,3.56-1.47,5.58-4.34,5.68s-5.63,0-8.44,0Zm0-5.56a31.63,31.63,0,0,0,4.61-.07c.64-.1,1.2-1,1.79-1.5-.44-.78-.75-1.88-1.35-2.27C406.9,170.16,404.68,171.75,403.7,175.21Z" transform="translate(-106.93 -125.47)"/><path class="cls-3" d="M325,179.55c1.39,3.14,3.26,3.52,5.23,3.34a14.61,14.61,0,0,0,3.46-1c1.77-.63,2.6.53,3.25,2.35s.41,3.26-.89,4.39c-5.89,5.07-16.06.44-17.71-8.19-1-5.3-.35-10.27,3.27-13.89s7.75-4.08,12-2c3.39,1.7,5.3,6.62,4.57,11a4.3,4.3,0,0,1-4.31,3.91C331,179.6,328.19,179.55,325,179.55Zm.17-4.34a25.6,25.6,0,0,0,4.42-.08c.7-.12,1.31-1,2-1.53-.58-.83-1-2.09-1.75-2.41C327.92,170.36,326,172,325.12,175.21Z" transform="translate(-106.93 -125.47)"/><path class="cls-4" d="M381.2,179.55c.69,2.79,2.33,3.3,3.91,3.33a13.2,13.2,0,0,0,4.35-1c1.57-.54,2.6.05,3.25,1.85s.8,3.38-.6,4.74c-3.84,3.71-13.14,1.8-16.12-3.34-3.68-6.35-2.54-15.37,2.48-19.47,5.35-4.38,12.81-2.49,15,3.93,1.64,4.73,1,10.5-5,10C386.13,179.37,383.77,179.55,381.2,179.55Zm-.05-4.35a30.38,30.38,0,0,0,4.61-.07c.62-.09,1.17-1,1.76-1.47-.48-.81-.83-2-1.48-2.36C384.08,170.24,382,171.88,381.15,175.2Z" transform="translate(-106.93 -125.47)"/><path class="cls-5" d="M280.47,176.83c0,7.37-4.63,13.15-10.65,13.24-5.57.07-10.7-6.11-10.76-13-.07-7.64,4.74-13.77,10.76-13.73S280.45,169.16,280.47,176.83Zm-10.55-5c-2.2-.07-4.1,2.16-4.1,4.81s1.72,4.78,3.83,4.84,4.08-2.16,4.1-4.83S272.07,171.91,269.92,171.85Z" transform="translate(-106.93 -125.47)"/><path class="cls-6" d="M421.77,172.57c-3.32-.44-3.62-.86-3.6-4.51,0-3.33.41-3.82,3.61-4.21,0-1.78,0-3.6,0-5.43,0-2.79,1.34-3.39,3.22-3.36,2.47.05,3.33.85,3.43,3.47.06,1.75,0,3.49,0,5.18,6,1.18,6,1.18,5.94,5-.07,3.21-.2,3.29-5.9,3.85a58,58,0,0,0,.1,7.1,3,3,0,0,0,2.09,2.07c2.45.1,2.75,1.86,2.7,4.28s-1,3.68-3,3.75c-5.62.19-8.43-3.09-8.55-10.1C421.74,177.32,421.77,175,421.77,172.57Z" transform="translate(-106.93 -125.47)"/><path class="cls-7" d="M250.62,181.68c-.63-.3-1.26-.61-1.89-.89a44.58,44.58,0,0,1-4.81-2.1c-2.66-1.56-3.72-4.79-3.24-9.2a6.09,6.09,0,0,1,4.64-5.56,12,12,0,0,1,8.75.83c1.44.68,2.37,1.71,1.61,3.76-.68,1.85-1.44,3.49-3.54,2.49a9.6,9.6,0,0,0-3.67-.82c-.57,0-1.15.7-1.73,1.08.53.56,1,1.37,1.6,1.63,1.33.55,2.76.69,4.09,1.24,3.39,1.38,4.51,3.44,4.43,7.85-.08,4-1.38,6.27-4.67,7.37a11.5,11.5,0,0,1-10.38-1.15c-1.43-.93-2.59-1.86-1.6-4.28,1.2-3,2-3.56,4.09-2.35s4,2.42,6.17,1Z" transform="translate(-106.93 -125.47)"/><path class="cls-8" d="M305.42,178.49c1.85-4.43,3.46-8.38,5.14-12.28,1.36-3.14,2.93-3.5,5.22-1.35a3.86,3.86,0,0,1,1,4.84c-2.79,6-5.5,12.14-8.42,18.07-1.45,2.94-4.44,2.81-5.89-.18-2.85-5.87-5.61-11.83-8.3-17.82-1.09-2.42-.45-4.1,1.78-5.53,2.07-1.33,3.06-1,4.18,1.54C301.84,169.82,303.51,173.92,305.42,178.49Z" transform="translate(-106.93 -125.47)"/><path class="cls-9" d="M283.21,168.23c0-4.19,0-8.37,0-12.55,0-3.05.83-3.94,3.27-4,2.65,0,3.42.76,3.44,3.95,0,7.53,0,15.05,0,22.58,0,1.83.08,3.24,2,3.4s1.82,2.34,1.84,4.06-.17,3.53-2.06,3.95c-4.93,1.11-8-1.52-8.36-7.78-.26-4.53-.05-9.1-.05-13.65Z" transform="translate(-106.93 -125.47)"/><path class="cls-10" d="M143.94,209.66c-3.74-3.84-7.44-6.22-12.66-5.44a51.81,51.81,0,0,1-8.36.05c-2.9-.05-4.88-1.47-4.69-3.52.26-2.68,2.12-3.33,4.53-3.27,2.68.08,5.37,0,8.54,0-4.68-7.67-7.87-15.5-8.15-24.32a47.92,47.92,0,0,1,6.25-25.11c-6.29,0-12.12.11-17.94-.1a5,5,0,0,1-3.63-2c-1.24-2.19.53-4.3,3.53-4.34,6.53-.08,13.07-.13,19.6,0a7,7,0,0,0,5.76-2.45,95.52,95.52,0,0,1,7.47-6.54c-5.43,0-10.46,0-15.49,0-1.15,0-2.52.21-3.38-.33a4.34,4.34,0,0,1-2-3c0-1,1.14-2.19,2-3,.45-.41,1.47-.26,2.24-.26,14,0,28.08-.33,42.1.13,19.21.64,33,10.19,40.54,27.65,12.74,29.54-9.23,62.37-41.5,62.55-18.56.1-37.11,0-55.66,0-1,0-2.14.13-2.79-.36-1-.78-2.35-2.05-2.32-3.08s1.4-2.26,2.47-3c.67-.48,1.85-.29,2.8-.29C123.28,209.65,133.37,209.66,143.94,209.66ZM196.6,171.5a27.9,27.9,0,0,0-28.08-28.45c-15.22-.14-28.32,12.65-28.42,27.75a28.47,28.47,0,0,0,28.17,28.58A28,28,0,0,0,196.6,171.5Z" transform="translate(-106.93 -125.47)"/><path class="cls-11" d="M213.51,150.53c17.71,8.23,25.12,27.71,17.45,45.19a7.23,7.23,0,0,0-.2,4.42c1,3.72,5.78,10.69,6.69,14.42.36,1.46.37,3.67-.49,4.57s-3.06.86-4.51.52c-4-.94-11.33-5.77-15.36-6.74a8,8,0,0,0-4.45.37,36.41,36.41,0,0,1-18.77,2.51C216.91,198.9,224.13,177.49,213.51,150.53Z" transform="translate(-106.93 -125.47)"/><path class="cls-12" d="M145.22,173s-.4-8.41,3.44-12.82,6.3-6.66,13.86-8.81l.46,3.26s-6.68,2.19-4.44,8.47a6.42,6.42,0,0,0,6.3,4.61l.67,3.11-4.61.26s-.16,5.95-4.68,6.13-6.63-3.35-6.54-4.63Z" transform="translate(-106.93 -125.47)"/><path class="cls-13" d="M164.73,150.53s10.45-2.92,17.75,3c4.05,3.27,6.28,4.68,8.7,14.62l-3.73.46s-1.26-6.39-8.63-4.08a7.19,7.19,0,0,0-5.53,6.92l-3.64.16-.17-4.69s-8.74.31-8.83-4.78,3.2-7.29,4.69-7.15Z" transform="translate(-106.93 -125.47)"/><path class="cls-14" d="M166.88,172.71l-3.79.6s.86,5-5.09,6.64-8.94-3.94-8.94-3.94l-2.87.46s3,8.21,9.14,13.22,17.49,4.07,17.49,4.07l-1.63-4.67s5.44-1.21,4.06-7.33c-.95-4.48-5.76-4.92-7.28-4.23Z" transform="translate(-106.93 -125.47)"/><path class="cls-15" d="M169.57,172.07h4.75s.25-5.76,5.86-6.53a5.64,5.64,0,0,1,6.64,4.29l4.6-.43s2.73,10.17-5.29,17.93a22.15,22.15,0,0,1-11.56,6.09l-1.29-3a7.23,7.23,0,0,0,4.05-9.83c-1.29-3.79-5.69-4.67-7.07-4.57Z" transform="translate(-106.93 -125.47)"/><path class="cls-16" d="M174.13,180.72l-10.63.69,3.3,2.16s-1.46,2.07-8.36,4.48c-5.17,1.9-5.52.95-5.52.95s.35,2.85,2.76,2.85,10.17-2.94,13.71-4.14l.43,3.27S174,185.55,174.13,180.72Z" transform="translate(-106.93 -125.47)"/><path class="cls-16" d="M152.92,189a1.55,1.55,0,0,1,.19-1.63l1.18,1.11.44.38.29.22S153.62,189.54,152.92,189Z" transform="translate(-106.93 -125.47)"/></svg>